G04 EAGLE Gerber RS-274X export*
G75*
%MOMM*%
%FSLAX34Y34*%
%LPD*%
%INSoldermask Bottom*%
%IPPOS*%
%AMOC8*
5,1,8,0,0,1.08239X$1,22.5*%
G01*
%ADD10P,1.951982X8X292.500000*%
%ADD11C,2.082800*%
%ADD12P,1.649562X8X112.500000*%
%ADD13P,1.649562X8X22.500000*%
%ADD14C,1.511200*%
%ADD15C,3.403200*%
%ADD16C,0.959600*%


D10*
X177800Y762000D03*
X177800Y711200D03*
D11*
X774700Y342900D03*
X774700Y368300D03*
X774700Y393700D03*
X623570Y254000D03*
X648970Y254000D03*
X50800Y279400D03*
X76200Y279400D03*
X83820Y654050D03*
X58420Y654050D03*
X812800Y762000D03*
X787400Y762000D03*
X762000Y762000D03*
X736600Y762000D03*
X628650Y675640D03*
X628650Y650240D03*
X698500Y177800D03*
X698500Y152400D03*
X698500Y127000D03*
X698500Y101600D03*
X698500Y76200D03*
X215900Y558800D03*
X196850Y571500D03*
X215900Y584200D03*
D12*
X690880Y342900D03*
X690880Y393700D03*
D13*
X560070Y675640D03*
X585470Y675640D03*
D12*
X165100Y546100D03*
X165100Y571500D03*
D13*
X558800Y254000D03*
X584200Y254000D03*
D14*
X271000Y775800D03*
X271000Y755800D03*
X271000Y735800D03*
X271000Y715800D03*
X271000Y695800D03*
X271000Y675800D03*
X271000Y655800D03*
X271000Y635800D03*
X271000Y615800D03*
X271000Y595800D03*
X491000Y595800D03*
X491000Y615800D03*
X491000Y635800D03*
X491000Y655800D03*
X491000Y675800D03*
X491000Y695800D03*
X491000Y715800D03*
X491000Y735800D03*
X491000Y755800D03*
X491000Y775800D03*
D15*
X50800Y749300D03*
X952500Y749300D03*
X50800Y50800D03*
X952500Y50800D03*
D11*
X850900Y478790D03*
X876300Y478790D03*
X901700Y478790D03*
X927100Y478790D03*
X952500Y478790D03*
X561340Y486410D03*
X561340Y511810D03*
D13*
X502920Y486410D03*
X528320Y486410D03*
X502920Y513080D03*
X528320Y513080D03*
D16*
X600964Y189738D03*
X600710Y116840D03*
X951230Y351790D03*
X897890Y331470D03*
X709930Y271780D03*
X803910Y685800D03*
X857250Y685800D03*
X600710Y317500D03*
X520700Y344170D03*
X537210Y320040D03*
X477520Y246380D03*
X355600Y264160D03*
X311150Y264160D03*
X757936Y437896D03*
X762000Y596900D03*
X236220Y339090D03*
X294640Y339090D03*
X781812Y560832D03*
X512826Y379476D03*
X451104Y186944D03*
X397002Y187452D03*
X381000Y516890D03*
X354330Y494030D03*
X504698Y214376D03*
X847090Y191008D03*
X976630Y204470D03*
X901700Y510540D03*
X547116Y388112D03*
X776732Y450342D03*
X906780Y245364D03*
X875690Y511200D03*
X739902Y212598D03*
X774192Y116078D03*
X540512Y412496D03*
X807466Y489712D03*
X807720Y548640D03*
X321818Y457200D03*
X351790Y337820D03*
X681228Y15748D03*
X927100Y177800D03*
X101600Y152400D03*
X266700Y397510D03*
X544830Y358140D03*
X462280Y260350D03*
X372110Y228600D03*
X419100Y152400D03*
X734060Y38100D03*
X863600Y38100D03*
X784860Y41910D03*
X948690Y177800D03*
X876300Y309880D03*
X935990Y307340D03*
X858520Y349250D03*
X941070Y614028D03*
X965200Y673100D03*
X753110Y609600D03*
X581660Y544830D03*
X190500Y88900D03*
X488950Y39370D03*
X469900Y152400D03*
X368300Y124460D03*
X419100Y520700D03*
X946150Y247650D03*
X127000Y292100D03*
X241300Y254000D03*
X207010Y139700D03*
X398780Y66040D03*
X660400Y38100D03*
X292100Y495300D03*
M02*
